{"title":"Michael Jackson &amp; Justin Timberlake - Love Never Felt So Goo","uid":10170376,"size":66088929,"categoryP":"video","categoryS":"music_videos","magnet":"?xt=urn:btih:7931d162923de0503044d5fea0230a62c8128ae0&amp;dn=Michael+Jackson+%26amp%3B+Justin+Timberlake+-+Love+Never+Felt+So+Goo&amp;tr=udp%3A%2F%2Ftracker.openbittorrent.com%3A80&amp;tr=udp%3A%2F%2Fopen.demonii.com%3A1337&amp;tr=udp%3A%2F%2Ftracker.coppersurfer.tk%3A6969&amp;tr=udp%3A%2F%2Fexodus.desync.com%3A6969","seeders":0,"leechers":0,"uploader":"Sbyky","files":1,"time":1400398258,"description":"\n\nGeneral\nComplete name                            : Michael Jackson &amp; Justin Timberlake - Love Never Felt So Good [Music Video] 720p [Sbyky].MP4\nFormat                                   : MPEG-4\nFormat profile                           : Base Media\nCodec ID                                 : isom\nFile size                                : 63.0 MiB\nDuration                                 : 4mn 7s\nOverall bit rate mode                    : Variable\nOverall bit rate                         : 2 140 Kbps\nEncoded date                             : UTC 2014-05-13 01:40:02\nTagged date                              : UTC 2014-05-13 01:40:02\n\nVideo\nID                                       : 1\nFormat                                   : AVC\nFormat/Info                              : Advanced Video Codec\nFormat profile                           : &lt;a class=&quot;__cf_email__&quot; href=&quot;/cdn-cgi/l/email-protection&quot; data-cfemail=&quot;a3eec2cacde3ef908d92&quot;&gt;[email&amp;#160;protected]&lt;/a&gt;&lt;script data-cfhash='f9e31' type=&quot;text/javascript&quot;&gt;\n/* &lt;![CDATA[ */!function(){try{var t=&quot;currentScript&quot;in document?document.currentScript:function(){for(var t=document.getElementsByTagName(&quot;script&quot;),e=t.length;e--;)if(t[e].getAttribute(&quot;data-cfhash&quot;))return t[e]}();if(t&amp;&amp;t.previousSibling){var e,r,n,i,c=t.previousSibling,a=c.getAttribute(&quot;data-cfemail&quot;);if(a){for(e=&quot;&quot;,r=parseInt(a.substr(0,2),16),n=2;a.length-n;n+=2)i=parseInt(a.substr(n,2),16)^r,e+=String.fromCharCode(i);e=document.createTextNode(e),c.parentNode.replaceChild(e,c)}t.parentNode.removeChild(t);}}catch(u){}}()/* ]]&gt; */&lt;/script&gt;\nFormat settings, CABAC                   : Yes\nFormat settings, ReFrames                : 3 frames\nCodec ID                                 : avc1\nCodec ID/Info                            : Advanced Video Coding\nDuration                                 : 4mn 7s\nBit rate                                 : 2 010 Kbps\nWidth                                    : 1 280 pixels\nHeight                                   : 720 pixels\nDisplay aspect ratio                     : 16:9\nFrame rate mode                          : Variable\nFrame rate                               : 23.976 fps\nMinimum frame rate                       : 23.974 fps\nMaximum frame rate                       : 24.246 fps\nColor space                              : YUV\nChroma subsampling                       : 4:2:0\nBit depth                                : 8 bits\nScan type                                : Progressive\nBits/(Pixel*Frame)                       : 0.091\nStream size                              : 59.2 MiB (94%)\nEncoded date                             : UTC 2014-05-13 01:40:02\nTagged date                              : UTC 2014-05-13 01:40:02\n\nAudio\nID                                       : 2\nFormat                                   : AAC\nFormat/Info                              : Advanced Audio Codec\nFormat profile                           : LC\nCodec ID                                 : 40\nDuration                                 : 4mn 7s\nBit rate mode                            : Variable\nBit rate                                 : 126 Kbps\nChannel(s)                               : 2 channels\nChannel positions                        : Front: L R\nSampling rate                            : 44.1 KHz\nCompression mode                         : Lossy\nStream size                              : 3.70 MiB (6%)\nEncoded date                             : UTC 2014-05-13 01:39:51\nTagged date                              : UTC 2014-05-13 01:39:51\n\nShared By Sbyky\n","torrent":{"xt":"urn:btih:7931d162923de0503044d5fea0230a62c8128ae0","amp;dn":"Michael+Jackson+%26amp%3B+Justin+Timberlake+-+Love+Never+Felt+So+Goo","amp;tr":["udp%3A%2F%2Ftracker.openbittorrent.com%3A80","udp%3A%2F%2Fopen.demonii.com%3A1337","udp%3A%2F%2Ftracker.coppersurfer.tk%3A6969","udp%3A%2F%2Fexodus.desync.com%3A6969"],"infoHash":"7931d162923de0503044d5fea0230a62c8128ae0","infoHashBuffer":{"type":"Buffer","data":[121,49,209,98,146,61,224,80,48,68,213,254,160,35,10,98,200,18,138,224]},"announce":[],"urlList":[]}}